<svg width="37" height="38" viewBox="0 0 37 38" fill="none" xmlns="http://www.w3.org/2000/svg">
<g clip-path="url(#clip0_123_941)">
<path d="M18.5 37.5C28.7173 37.5 37 29.2173 37 19C37 8.78273 28.7173 0.5 18.5 0.5C8.28273 0.5 0 8.78273 0 19C0 29.2173 8.28273 37.5 18.5 37.5Z" fill="#AE3333"/>
<path d="M18.5 21.4281L29.5421 11.9758C29.3687 11.8602 29.1375 11.7734 28.9062 11.7734H8.0937C7.86245 11.7734 7.6312 11.8602 7.45776 11.9758L18.5 21.4281Z" fill="white"/>
<path d="M19.2516 22.2953C18.818 22.6711 18.182 22.6711 17.7484 22.2953L6.9375 13.0742V25.0703C6.9375 25.7063 7.45781 26.2266 8.09375 26.2266H28.9062C29.5422 26.2266 30.0625 25.7063 30.0625 25.0703V13.0453L19.2516 22.2953Z" fill="white"/>
</g>
<defs>
<clipPath id="clip0_123_941">
<rect width="37" height="37" fill="white" transform="translate(0 0.5)"/>
</clipPath>
</defs>
</svg>
