<svg width="36" height="36" viewBox="0 0 36 36" fill="none" xmlns="http://www.w3.org/2000/svg">
<g clip-path="url(#clip0_123_903)">
<path d="M18 36C27.9411 36 36 27.9411 36 18C36 8.05887 27.9411 0 18 0C8.05887 0 0 8.05887 0 18C0 27.9411 8.05887 36 18 36Z" fill="url(#paint0_linear_123_903)"/>
<path d="M23.1562 29.25H12.8438C9.48375 29.25 6.75 26.5165 6.75 23.1562V12.8438C6.75 9.48347 9.48375 6.75 12.8438 6.75H23.1562C26.5165 6.75 29.25 9.48347 29.25 12.8438V23.1564C29.25 26.5165 26.5165 29.25 23.1562 29.25ZM12.8438 8.62509C10.5176 8.62509 8.62509 10.5176 8.62509 12.8438V23.1564C8.62509 25.4827 10.5176 27.3752 12.8438 27.3752H23.1562C25.4824 27.3752 27.3749 25.4827 27.3749 23.1564V12.8438C27.3749 10.5176 25.4824 8.62509 23.1562 8.62509H12.8438Z" fill="white"/>
<path d="M18 23.625C14.8984 23.625 12.375 21.1013 12.375 18C12.375 14.8981 14.8984 12.375 18 12.375C21.1016 12.375 23.625 14.8981 23.625 18C23.625 21.1013 21.1016 23.625 18 23.625ZM18 14.2501C15.9322 14.2501 14.2501 15.9322 14.2501 18C14.2501 20.068 15.9322 21.7499 18 21.7499C20.0678 21.7499 21.7499 20.068 21.7499 18C21.7499 15.9322 20.068 14.2501 18 14.2501Z" fill="white"/>
<path d="M23.9766 13.3124C24.6885 13.3124 25.2656 12.7353 25.2656 12.0234C25.2656 11.3116 24.6885 10.7345 23.9766 10.7345C23.2647 10.7345 22.6876 11.3116 22.6876 12.0234C22.6876 12.7353 23.2647 13.3124 23.9766 13.3124Z" fill="white"/>
</g>
<defs>
<linearGradient id="paint0_linear_123_903" x1="7.67492" y1="32.7461" x2="28.3254" y2="3.25418" gradientUnits="userSpaceOnUse">
<stop stop-color="#FF9900"/>
<stop offset="1" stop-color="#AE00EB"/>
</linearGradient>
<clipPath id="clip0_123_903">
<rect width="36" height="36" fill="white"/>
</clipPath>
</defs>
</svg>
