<svg width="42" height="42" viewBox="0 0 42 42" fill="none" xmlns="http://www.w3.org/2000/svg">
<path fill-rule="evenodd" clip-rule="evenodd" d="M31.868 30.1754V22.8336C31.868 18.9 29.768 17.0696 26.9684 17.0696C24.7092 17.0696 23.6968 18.3126 23.1326 19.1846V17.3704H18.8762C18.9326 18.5721 18.8762 30.1754 18.8762 30.1754H23.1326V23.0242C23.1326 22.6424 23.1602 22.26 23.273 21.9867C23.5802 21.2219 24.2804 20.4302 25.4557 20.4302C26.9966 20.4302 27.6122 21.6043 27.6122 23.325V30.1761L31.868 30.1754ZM14.3922 15.6227C15.876 15.6227 16.8006 14.6386 16.8006 13.4093C16.773 12.1537 15.876 11.1977 14.4204 11.1977C12.9648 11.1977 12.0126 12.153 12.0126 13.4093C12.0126 14.6386 12.9366 15.6227 14.3652 15.6227H14.3922ZM21.3134 40.1194C10.9275 40.1194 2.50745 31.6993 2.50745 21.3134C2.50745 10.9269 10.9275 2.50746 21.3134 2.50746C31.6993 2.50746 40.1194 10.9269 40.1194 21.3134C40.1194 31.6993 31.6993 40.1194 21.3134 40.1194ZM16.5204 30.1754V17.3704H12.2646V30.1754H16.5204Z" fill="#038ED6"/>
</svg>
