<svg width="62" height="62" viewBox="0 0 62 62" fill="none" xmlns="http://www.w3.org/2000/svg">
<g clip-path="url(#clip0_126_1064)">
<path fill-rule="evenodd" clip-rule="evenodd" d="M31 0C48.1093 0 62 13.8907 62 31C62 48.1093 48.1093 62 31 62C13.8907 62 0 48.1093 0 31C0 13.8907 13.8907 0 31 0ZM25.327 47.3525C39.0755 47.3525 46.593 35.96 46.593 26.0865C46.593 25.761 46.593 25.4355 46.5775 25.1255C48.0345 24.0715 49.3055 22.754 50.313 21.2505C48.98 21.8395 47.5385 22.2425 46.0195 22.4285C47.5695 21.4985 48.7475 20.0415 49.3055 18.29C47.864 19.1425 46.2675 19.7625 44.5625 20.1035C43.1985 18.6465 41.261 17.7475 39.1065 17.7475C34.9835 17.7475 31.6355 21.0955 31.6355 25.2185C31.6355 25.8075 31.6975 26.381 31.837 26.9235C25.6215 26.6135 20.119 23.6375 16.43 19.1115C15.7945 20.212 15.4225 21.4985 15.4225 22.8625C15.4225 25.451 16.74 27.745 18.755 29.078C17.5305 29.047 16.3835 28.706 15.376 28.148V28.241C15.376 31.868 17.949 34.875 21.3745 35.5725C20.7545 35.743 20.088 35.836 19.406 35.836C18.9255 35.836 18.4605 35.7895 17.9955 35.6965C18.941 38.6725 21.7 40.827 24.9705 40.889C22.413 42.8885 19.189 44.082 15.686 44.082C15.0815 44.082 14.4925 44.051 13.9035 43.9735C17.174 46.1125 21.111 47.3525 25.327 47.3525Z" fill="#0F72CE"/>
</g>
<defs>
<clipPath id="clip0_126_1064">
<rect width="62" height="62" fill="white"/>
</clipPath>
</defs>
</svg>
