<svg width="37" height="38" viewBox="0 0 37 38" fill="none" xmlns="http://www.w3.org/2000/svg">
<g clip-path="url(#clip0_123_924)">
<path d="M18.5 37.5C8.2843 37.5 0 29.2157 0 19C0 8.7843 8.2843 0.5 18.5 0.5C28.7157 0.5 37 8.7843 37 19C37 29.2157 28.7157 37.5 18.5 37.5Z" fill="#0A8136"/>
<path fill-rule="evenodd" clip-rule="evenodd" d="M27.1543 10.3864C24.8603 8.0887 21.8041 6.8233 18.5518 6.8196C11.8511 6.8196 6.3936 12.2734 6.3936 18.9778C6.3936 21.1201 6.9523 23.2143 8.0179 25.0569L6.2937 31.358L12.7391 29.6671C14.5151 30.6365 16.5131 31.1471 18.5481 31.1471H18.5518C25.2525 31.1471 30.7063 25.6933 30.71 18.9889C30.7137 15.7403 29.452 12.6841 27.1543 10.3864ZM18.5555 29.0936H18.5518C16.7388 29.0936 14.9591 28.6052 13.4088 27.6839L13.0388 27.4656L9.213 28.4683L10.2342 24.7387L9.9937 24.3576C8.9836 22.7481 8.4471 20.8907 8.4471 18.9778C8.4508 13.4056 12.9833 8.8731 18.5592 8.8731C21.2602 8.8731 23.7947 9.9276 25.7039 11.8368C27.6131 13.746 28.6639 16.2879 28.6602 18.9852C28.6602 24.5611 24.124 29.0936 18.5555 29.0936ZM24.0981 21.5234C23.7947 21.3717 22.2999 20.6354 22.0224 20.5355C21.7449 20.4356 21.5414 20.3838 21.3379 20.6872C21.1344 20.9906 20.5535 21.6751 20.3759 21.8786C20.1983 22.0821 20.0207 22.108 19.7173 21.9563C19.4139 21.8046 18.4334 21.4827 17.2753 20.4467C16.3725 19.6401 15.762 18.6448 15.5844 18.3414C15.4068 18.038 15.5659 17.8715 15.7176 17.7198C15.8545 17.5829 16.021 17.3646 16.1727 17.187C16.3244 17.0094 16.3762 16.8836 16.4761 16.6801C16.576 16.4766 16.5279 16.299 16.4502 16.1473C16.3725 15.9956 15.7657 14.5008 15.5141 13.8903C15.2662 13.2983 15.0183 13.3797 14.8296 13.3686C14.652 13.3612 14.4485 13.3575 14.2487 13.3575C14.0452 13.3575 13.7159 13.4352 13.4384 13.7386C13.1609 14.042 12.3765 14.7783 12.3765 16.2731C12.3765 17.7679 13.4643 19.2146 13.616 19.4144C13.7677 19.6179 15.7583 22.6852 18.8071 24.0024C19.5323 24.3169 20.0984 24.5019 20.5387 24.6425C21.2676 24.8756 21.9299 24.8423 22.4516 24.7646C23.0362 24.6758 24.2498 24.0283 24.5014 23.3216C24.753 22.6112 24.753 22.0044 24.679 21.8786C24.605 21.7528 24.4015 21.6788 24.0981 21.5234Z" fill="white"/>
</g>
<defs>
<clipPath id="clip0_123_924">
<rect width="37" height="37" fill="white" transform="translate(0 0.5)"/>
</clipPath>
</defs>
</svg>
